<?xml version="1.0" standalone="no"?>
<!DOCTYPE svg PUBLIC "-//W3C//DTD SVG 1.1//EN" "http://www.w3.org/Graphics/SVG/1.1/DTD/svg11.dtd" >
<svg xmlns="http://www.w3.org/2000/svg">
<metadata>
Created by FontForge 20120731 at Sun Dec 25 18:04:15 2016
 By admin
</metadata>
<defs>
<font id="iconfont" horiz-adv-x="1024" >
  <font-face 
    font-family="iconfont"
    font-weight="500"
    font-stretch="normal"
    units-per-em="1024"
    panose-1="2 0 6 3 0 0 0 0 0 0"
    ascent="896"
    descent="-128"
    x-height="792"
    bbox="-53 -212 1090 896"
    underline-thickness="0"
    underline-position="0"
    unicode-range="U+0078-E766"
  />
<missing-glyph 
 />
    <glyph glyph-name=".notdef" 
 />
    <glyph glyph-name=".notdef" 
 />
    <glyph glyph-name=".null" horiz-adv-x="0" 
 />
    <glyph glyph-name="nonmarkingreturn" horiz-adv-x="341" 
 />
    <glyph glyph-name="x" unicode="x" horiz-adv-x="1001" 
d="M281 543q-27 -1 -53 -1h-83q-18 0 -36.5 -6t-32.5 -18.5t-23 -32t-9 -45.5v-76h912v41q0 16 -0.5 30t-0.5 18q0 13 -5 29t-17 29.5t-31.5 22.5t-49.5 9h-133v-97h-438v97zM955 310v-52q0 -23 0.5 -52t0.5 -58t-10.5 -47.5t-26 -30t-33 -16t-31.5 -4.5q-14 -1 -29.5 -0.5
t-29.5 0.5h-32l-45 128h-439l-44 -128h-29h-34q-20 0 -45 1q-25 0 -41 9.5t-25.5 23t-13.5 29.5t-4 30v167h911zM163 247q-12 0 -21 -8.5t-9 -21.5t9 -21.5t21 -8.5q13 0 22 8.5t9 21.5t-9 21.5t-22 8.5zM316 123q-8 -26 -14 -48q-5 -19 -10.5 -37t-7.5 -25t-3 -15t1 -14.5
t9.5 -10.5t21.5 -4h37h67h81h80h64h36q23 0 34 12t2 38q-5 13 -9.5 30.5t-9.5 34.5q-5 19 -11 39h-368zM336 498v228q0 11 2.5 23t10 21.5t20.5 15.5t34 6h188q31 0 51.5 -14.5t20.5 -52.5v-227h-327z" />
    <glyph glyph-name="pinglun" unicode="&#xe600;" horiz-adv-x="1000" 
d="M500 -13q-40 0 -85 7l-204 -194v263q-98 56 -154.5 143t-56.5 188q0 110 67 203.5t182 148t251 54.5t251 -54.5t182 -148t67 -204t-67 -204t-182 -148t-251 -54.5v0zM237 487q-33 0 -56 -27t-23 -66t23 -66.5t56 -27.5t56 27.5t23 66.5t-23 66t-56 27v0zM500 487
q-33 0 -56 -27t-23 -66t23 -66.5t56 -27.5t56 27.5t23 66.5t-23 66t-56 27v0zM763 487q-33 0 -56 -27t-23 -66t23 -66.5t56 -27.5t56 27.5t23 66.5t-23 66t-56 27v0zM763 487z" />
    <glyph glyph-name="gengduo" unicode="&#xe601;" 
d="M122 420q-49 0 -84 -34.5t-35 -83.5t35 -84t84 -35t83.5 35t34.5 84t-34.5 83.5t-83.5 34.5zM500 420q-49 0 -84 -34.5t-35 -83.5t35 -84t84 -35t84 35t35 84t-35 83.5t-84 34.5zM902 420q-49 0 -84 -34.5t-35 -83.5t35 -84t84 -35t83.5 35t34.5 84t-34.5 83.5
t-83.5 34.5z" />
    <glyph glyph-name="shijian" unicode="&#xe603;" 
d="M512 -212q104 0 199 40.5t163.5 109t109.5 163.5t41 199t-41 199t-109.5 163.5t-163.5 109t-199 40.5t-199 -40.5t-163.5 -109t-109 -163.5t-40.5 -199t40.5 -199t109 -163.5t163.5 -109t199 -40.5zM516.5 660q99.5 0 184 -49t133.5 -133.5t49 -184.5t-49 -184.5
t-133.5 -133.5t-184 -49t-184 49t-134 133.5t-49.5 184.5t49.5 184.5t134 133.5t184 49zM470 214h256q17 0 29.5 12.5t12.5 30.5t-12.5 30.5t-29.5 12.5h-214v213q0 18 -12.5 30.5t-30 12.5t-30 -12.5t-12.5 -30.5v-256q0 -18 12.5 -30.5t30.5 -12.5z" />
    <glyph glyph-name="unie614" unicode="&#xe63b;" 
d="M-53 853v0v0zM789 351v163q0 55 -21.5 105t-58 86.5t-86 58t-104.5 21.5h-10q-113 0 -192.5 -79.5t-79.5 -191.5v-163h-95v-559h745v559h-98v0zM599 -106h-169l41 181q-41 24 -41 73q0 34 25 59t60 25t59.5 -25t24.5 -59q0 -49 -42 -73zM653 351h-280v163q0 55 39.5 95
t96.5 40h10q27 0 52 -10.5t43 -29t28.5 -43t10.5 -52.5v-163z" />
    <glyph glyph-name="gengduo1" unicode="&#xe766;" 
d="M512 569q37 0 63.5 26t26.5 63.5t-26.5 63.5t-63.5 26t-63.5 -26t-26.5 -63.5t26.5 -63.5t63.5 -26zM512 390q-37 0 -63.5 -26.5t-26.5 -63.5t26.5 -63.5t63.5 -26.5t63.5 26.5t26.5 63.5t-26.5 63.5t-63.5 26.5zM512 31q-37 0 -63.5 -26t-26.5 -63.5t26.5 -63.5
t63.5 -26t63.5 26t26.5 63.5t-26.5 63.5t-63.5 26z" />
    <glyph glyph-name="shijian1" unicode="&#xe6b8;" 
d="M514.5 789q-97.5 0 -186.5 -39t-153.5 -104t-102.5 -155.5t-38 -190t38 -190t102.5 -155.5t153.5 -104t186.5 -39t186.5 39t153.5 104t102.5 155.5t38 190t-38 190t-102.5 155.5t-153.5 104t-186.5 39zM514.5 -88q-103.5 0 -192 52t-139.5 141.5t-51 195t51 195
t139.5 141.5t192 52t192 -52t139.5 -141.5t51 -195t-51.5 -195t-139.5 -141.5t-191.5 -52zM753 202l-206 126v236q0 10 -7.5 18t-18.5 8h-14q-11 0 -18.5 -8t-7.5 -18v-260q0 -18 17 -24l2 -2l219 -133q9 -6 19 -3.5t16 11.5l7 13q6 9 3.5 19.5t-11.5 16.5z" />
    <glyph glyph-name="iconfontxiala" unicode="&#xe610;" 
d="M750 401l-10 9q-5 5 -10 0l-218 -192l-218 192q-5 5 -10 0l-10 -9q-5 -4 0 -8l230 -203q3 -3 8 -1q5 -2 8 1l230 203q5 4 0 8z" />
    <glyph glyph-name="jihua" unicode="&#xe639;" 
d="M888 -147h-752q-18 0 -31 12t-13 30v727q0 18 13 30t31 12h72v-42q0 -35 25.5 -59.5t61.5 -24.5t61.5 24.5t25.5 59.5v42h43v-42q0 -35 25.5 -59.5t61.5 -24.5t61.5 24.5t25.5 59.5v42h43v-42q0 -35 25.5 -59.5t61.5 -24.5t61.5 24.5t25.5 59.5v42h72q18 0 31 -12t13 -30
v-727q0 -18 -13 -30t-31 -12zM773 426h-522q-18 0 -30.5 -12t-12.5 -29.5t12.5 -30t30.5 -12.5h522q18 0 30.5 12.5t12.5 30t-12.5 29.5t-30.5 12zM773 244h-522q-18 0 -30.5 -12t-12.5 -29.5t12.5 -30t30.5 -12.5h522q18 0 30.5 12.5t12.5 30t-12.5 29.5t-30.5 12zM780 62
h-536q-15 0 -25.5 -10t-10.5 -24.5t10.5 -24.5t25.5 -10h536q15 0 25.5 10t10.5 24.5t-10.5 24.5t-25.5 10zM729 580q-18 0 -30.5 12.5t-12.5 29.5v84q0 17 12.5 29.5t30.5 12.5t31 -12.5t13 -29.5v-84q0 -17 -13 -29.5t-31 -12.5zM512 580q-18 0 -30.5 12.5t-12.5 29.5v84
q0 17 12.5 29.5t30.5 12.5t30.5 -12.5t12.5 -29.5v-84q0 -17 -12.5 -29.5t-30.5 -12.5zM295 580q-18 0 -31 12.5t-13 29.5v84q0 17 13 29.5t31 12.5t30.5 -12.5t12.5 -29.5v-84q0 -17 -12.5 -29.5t-30.5 -12.5z" />
    <glyph glyph-name="banjiquan" unicode="&#xe602;" 
d="M512 812q-139 0 -257 -68.5t-186.5 -186.5t-68.5 -257t68.5 -257t186.5 -186.5t257 -68.5t257 68.5t186.5 186.5t68.5 257t-68.5 257t-186.5 186.5t-257 68.5zM700 21l-187 98l-187 -98l36 208l-152 148l209 30l94 189l93 -189l209 -30l-151 -148z" />
    <glyph glyph-name="guanzhu" unicode="&#xe640;" horiz-adv-x="1118" 
d="M559 -26l-329 -172l63 365l-266 259l367 53l165 333l164 -333l367 -53l-266 -259l63 -365z" />
    <glyph glyph-name="renshu" unicode="&#xe649;" 
d="M981.5 -138q-17.5 0 -30 12.5t-12.5 30.5v4v0.5v0.5q-2 88 -48 159.5t-122 107.5q-6 4 -11 5.5t-7.5 3t-7.5 7.5q-25 0 -42 17.5t-17 41.5l-1 6q0 2 1 5.5t1 4.5q-1 1 0 3t1 3l1 4q9 26 35 36l5 4q92 56 92 136q0 60 -41 112t-97 66q-5 3 -8 2.5t-13 1.5q-41 9 -41 41v4
q0 16 11 27.5t27 12.5l1 1q101 -7 170 -81t69 -176q0 -60 -26 -112t-71 -89q0 -1 0.5 -3t0.5 -3v-1q99 -46 159.5 -138.5t62.5 -205.5q0 -1 0.5 -2t0.5 -2v-4q0 -18 -12.5 -30.5t-30 -12.5zM541 260q100 -45 162.5 -139t64.5 -208v-2v-2l1 -4q0 -18 -12.5 -30.5t-30 -12.5
t-30 12.5t-12.5 30.5l-1 4v0.5v0.5q-1 120 -84 206t-202 91q-1 0 -5.5 -1t-6.5 -1t-6 1t-6 1q-120 -5 -203.5 -92.5t-83.5 -208.5v0h-1l1 -1q0 -18 -12.5 -30.5t-30.5 -12.5t-30.5 12.5t-12.5 30.5v4q0 1 2 9q3 113 65 205.5t162 136.5q-120 94 -120 194q0 70 39.5 132.5
t103 100t133.5 37.5q106 0 181.5 -76t75.5 -183q0 -62 -27 -115.5t-74 -89.5zM384.5 638q-70.5 0 -120.5 -50.5t-50 -122t50 -122t120.5 -50.5t120.5 50.5t50 122t-50 122t-120.5 50.5z" />
    <glyph glyph-name="icon" unicode="&#xe6ea;" 
d="M1019 -87q0 -31 -15.5 -53.5t-54.5 -22.5h-873q-39 0 -54.5 22.5t-15.5 53.5q0 41 18 85.5t50.5 84t84.5 64.5t113 25q2 -3 6.5 -8.5t23.5 -20t43.5 -25t69 -19.5t98 -9t97.5 8.5t69.5 20.5t43 24t24.5 21l6 8q61 0 113 -25t84.5 -64.5t50.5 -84t18 -85.5v0zM518 767
q-110 0 -187.5 -87t-77.5 -210t77.5 -210t187.5 -87t188 87t78 210t-78 210t-188 87v0zM518 767z" />
    <glyph glyph-name="shoujihaoma" unicode="&#xe635;" horiz-adv-x="1025" 
d="M512 896q-139 0 -257 -68.5t-186.5 -186.5t-68.5 -257t68.5 -257t186.5 -186.5t257 -68.5q104 0 199 40.5t163.5 109t109 163.5t40.5 199t-40.5 199t-109 163.5t-163.5 109t-199 40.5zM512 -64q-91 0 -174 35.5t-143 95.5t-95.5 143t-35.5 174t35.5 174t95.5 143
t143 95.5t174 35.5t174 -35.5t143 -95.5t95.5 -143t35.5 -174t-35.5 -174t-95.5 -143t-143 -95.5t-174 -35.5zM739 685q0 14 -9.5 23.5t-23.5 9.5h-392q-14 0 -24 -9.5t-10 -23.5v-608q0 -14 10 -24t24 -10h392q14 0 23.5 10t9.5 24v608zM514.5 65q-22.5 0 -38.5 16
t-16 38.5t16 38.5t38.5 16t38.5 -16t16 -38.5t-16 -38.5t-38.5 -16zM685 286q0 -34 -23.5 -57.5t-57.5 -23.5h-189q-33 0 -57 23.5t-24 57.5v297q0 34 24 57.5t57 23.5h189q34 0 57.5 -23.5t23.5 -57.5v-297z" />
    <glyph glyph-name="jiantouarrow483" unicode="&#xe695;" 
d="M512 166q-22 0 -38 16l-329 329q-15 15 -15 37.5t15.5 38t37.5 15.5t38 -16l291 -291l291 291q16 16 38 16t37.5 -15.5t15.5 -38t-15 -38.5l-329 -328q-16 -16 -38 -16z" />
    <glyph glyph-name="shijian-copy" unicode="&#xe604;" 
d="M976 -128h-928q-20 0 -34 14t-14 34v800q0 20 14 34t34 14h96v-48q0 -46 33 -79t79 -33t79 33t33 79v48h288v-48q0 -46 33 -79t79 -33t79 33t33 79v48h96q20 0 34 -14t14 -34v-800q0 -20 -14 -34t-34 -14zM928 512h-832v-544h832v544zM317 181q12 14 29 27t36 25
q8 6 20 14q11 7 20 15t15 18.5t6 23.5q0 22 -12.5 33.5t-31.5 11.5q-13 0 -22 -6t-14 -16q-5 -9 -7.5 -21t-2.5 -24h-57q0 25 6.5 46.5t20 37.5t33.5 25t46 9q20 0 38 -6t32 -18t22 -29t8 -38q0 -22 -7 -38t-18.5 -28t-26.5 -22q-16 -11 -30 -20q-15 -10 -29 -21t-25 -26
h137v-51h-213q0 25 7 44t20 34v0zM594 158q13 -12 33 -12q11 0 20.5 4.5t16 12.5t10 18t3.5 21t-3.5 21t-10 17.5t-15.5 11.5q-9 5 -21 5q-16 0 -26 -6t-19 -18h-53l29 161h162v-48h-120l-12 -67h1q12 12 26 17t31 5q22 0 38 -8q17 -8 28.5 -21t17.5 -31.5t6 -38.5
q0 -22 -8.5 -41.5t-23.5 -33.5t-34.5 -22t-41.5 -7q-21 0 -41 5q-19 6 -34 17.5t-24 29t-9 40.5h59q2 -20 15 -32v0zM768 672q-20 0 -34 14t-14 34v128q0 20 14 34t34 14t34 -14t14 -34v-128q0 -20 -14 -34t-34 -14zM256 672q-20 0 -34 14t-14 34v128q0 20 14 34t34 14
t34 -14t14 -34v-128q0 -20 -14 -34t-34 -14z" />
    <glyph glyph-name="yanzhengma" unicode="&#xe634;" 
d="M652 612q-27 17 -59 9.5t-49.5 -35.5t-10 -60t35 -49t60 -9.5t49.5 35t9.5 60t-35.5 49.5zM512 889q-103 0 -196.5 -40t-161 -107.5t-107.5 -161t-40 -196.5t40 -196.5t107.5 -161t161 -107.5t196.5 -40t196.5 40t161 107.5t107.5 161t40 196.5t-40 196.5t-107.5 161
t-161 107.5t-196.5 40zM661 375q-47 -14 -92 -3q-7 2 -11 -5q-9 -14 -44 -71q-3 -5 -4 -6q23 -14 25 -15q14 -10 19 -26t0 -31q-7 -15 -20.5 -23.5t-30.5 -6.5q-8 1 -21 8q-1 0 -21 13q-3 -5 -8 -13t-7 -11q22 -15 24 -15q25 -18 20.5 -47.5t-34.5 -38.5q-19 -6 -40 6
q0 1 -21 14q-1 -2 -2.5 -4.5t-2.5 -3.5q-11 -18 -30 -23t-36 5.5t-21.5 29.5t6.5 38q3 5 6.5 11.5t8.5 14t7 11.5q127 204 146 234q4 7 -1 13q-61 77 -30 170q20 59 77.5 92t118.5 20t99 -57t42 -106q4 -57 -31 -107.5t-91 -66.5z" />
    <glyph glyph-name="gengduo2" unicode="&#xe64c;" 
d="M946 435h-383v383q0 21 -15 36t-36 15t-36 -15t-15 -36v-383h-383q-21 0 -36 -15t-15 -36t15 -36t36 -15h383v-383q0 -21 15 -36t36 -15t36 15t15 36v383h383q21 0 36 15t15 36t-15 36t-36 15z" />
    <glyph glyph-name="shuru" unicode="&#xe63a;" 
d="M1003.5 875.5q-19.5 19.5 -47 19.5t-47.5 -20l-160 -160l-22 -22l-21 -21l-128 -128l-221 -220v0v-96h92v0l109 108l244 244l4 3v0l11 12v0l187 186q19 20 19 47.5t-19.5 47zM833 548l-243 -243l-109 -109l-13 -13h-19h-92h-45v45v96v18l13 13l221 221l128 127l13 13
h-686v-844h845v689l-9 -9z" />
    <glyph glyph-name="dianzan" unicode="&#xe708;" 
d="M293 -32h1v0v0v0v0v0h-1zM211 479h-108q-17 0 -28.5 -12t-11.5 -29v-429q0 -17 11.5 -29t28.5 -12h108q16 0 27.5 12t11.5 29v429q0 17 -11.5 29t-27.5 12zM943 464q-26 44 -80 46q-7 1 -201 1q17 51 17 131q0 42 -9 83h-1q-8 36 -35.5 59.5t-63.5 23.5q-41 0 -67 -31.5
t-26 -76.5q0 -1 -0.5 -3t-0.5 -3.5t1 -2.5q-3 -82 -59 -141.5t-134 -68.5l-1 -513h10h1v0h499v0q22 0 47 16q24 17 36 43q2 3 41.5 180.5t40.5 191.5q2 35 -15 65z" />
    <glyph glyph-name="1" unicode="&#xe60a;" 
d="M502 200l-77 -77l-77 77l-166 165l77 77l166 -165l340 340l78 -77zM512 896q-139 0 -257 -68.5t-186.5 -186.5t-68.5 -257t68.5 -257t186.5 -186.5t257 -68.5t257 68.5t186.5 186.5t68.5 257t-68.5 257t-186.5 186.5t-257 68.5v0z" />
    <glyph glyph-name="zhixian" unicode="&#xe6f3;" 
d="M142 414h767v-61h-767v61z" />
    <glyph glyph-name="baomingbiao" unicode="&#xe611;" 
d="M768 -128h-64v0h-640v1024h896v-768v-64zM192 64h512v128h-512v-128zM832 704h-640v-128h640v128zM832 448h-640v-128h640v128zM832 128q-53 0 -90.5 -37.5t-37.5 -90.5v-64l192 192h-64z" />
    <glyph glyph-name="huodong" unicode="&#xe6dc;" 
d="M581 527q-4 17 -10 32q-20 54 -62.5 87t-94.5 33q-72 0 -122.5 -59t-50.5 -142.5t50.5 -143t122.5 -59.5q50 0 92 32q14 10 26 23q54 60 54 147q0 25 -5 50zM390 606q-34 -12 -57 -42.5t-30 -72.5v0q-2 -13 -15 -13q-7 0 -11.5 4.5t-4.5 10.5q0 1 0.5 2l0.5 1h-1
q9 51 39.5 89.5t71.5 51.5h1.5h0.5q1 1 4 1h3q14 -2 14 -16q0 -12 -16 -16zM413.5 244q-10.5 0 -23.5 2l-9 -24h63l-8 24q-12 -2 -22.5 -2zM664 560q-29 0 -55 -14q9 -33 9 -69q0 -53 -19.5 -99.5t-54.5 -78.5q20 -37 51.5 -58.5t68.5 -21.5q59 0 100.5 49.5t41.5 120.5
t-41.5 121t-100.5 50zM763 328q1 -3 1 -4q0 -2 -1 -5q0 -1 -0.5 -1.5t-0.5 -1.5q-19 -40 -53 -56q-2 -1 -4 -1.5t-5 -0.5q-6 0 -10.5 4t-5.5 10q0 12 13 17q22 10 35 36q4 13 15 14q12 1 16 -11zM512 896q-139 0 -257 -68.5t-186.5 -186.5t-68.5 -257t68.5 -257
t186.5 -186.5t257 -68.5t257 68.5t186.5 186.5t68.5 257t-68.5 257t-186.5 186.5t-257 68.5zM691 190l8 -20h-17q-3 -8 -3 -12q9 -11 9 -24.5t-6 -21.5q-3 -5 -16 -28q-5 -9 -14 -9q-4 0 -8 2q-5 3 -7 9.5t1 11.5q14 25 18 32q3 3 -1 9q-10 11 -6 31h-21l9 20
q-75 14 -117 89q-29 -21 -62 -29l17 -49h-47v-5q-9 -21 -8 -31q26 -33 7 -62q-3 -5 -6.5 -10.5t-6.5 -10t-5.5 -8t-4 -5.5l-1.5 -2q-4 -7 -13 -7q-4 0 -8 2q-14 7 -6 21l3.5 5t9.5 14.5t12 17.5q7 10 -7 27q-12 15 2 54h-46l17 50q-68 18 -113 81t-45 145q0 96 60 164.5
t145 68.5q60 0 110 -37t74 -97q32 15 66 15q72 0 122.5 -59t50.5 -143q0 -75 -42 -131.5t-104 -67.5z" />
    <glyph glyph-name="zhuti" unicode="&#xe652;" horiz-adv-x="1025" 
d="M683 513q-29 27 -51 48l-38 35q-16 15 -19 18q-28 26 -64 24.5t-61 -24.5q-4 -5 -20 -19q-15 -15 -39 -37q-31 -27 -52 -47q-29 -26 -57 -52q-67 -61 -152 -139v-396q0 -24 17 -37.5t47 -13.5h201q-1 4 -1 7v174q0 41 29.5 70t70.5 29h37q41 0 70 -29t29 -70v-174v-7h201
q29 1 45.5 18.5t16.5 40.5v386q-84 78 -153 142q-29 26 -57 53v0zM1024 421q-1 24 -22 45l-26 25q-19 20 -48 47t-63 60q-33 33 -69.5 68t-70.5 68q-36 35 -63 61q-29 28 -47 45q-19 19 -26 24q-31 31 -76 30.5t-84 -38.5q-5 -5 -36 -34t-74 -70q-44 -41 -94 -87
q-50 -47 -94 -88t-76 -70.5t-38 -35.5q-16 -16 -17 -42t19 -44q19 -16 44.5 -15t40.5 13q5 4 30 27t60 55.5t75 70.5q42 39 78 72q37 35 65 61t38 35q30 28 62 29t64 -29q7 -6 33.5 -31.5t63.5 -59.5q38 -36 78 -74q44 -42 78 -74q39 -37 62 -58q26 -25 31 -29
q15 -13 40.5 -14t45.5 16q17 16 16 41v0z" />
    <glyph glyph-name="liulan-copy" unicode="&#xe612;" horiz-adv-x="1027" 
d="M514 656q-160 0 -296 -78.5t-216 -211.5q80 -133 216 -211t296 -78t296 78.5t216 210.5q-80 133 -216 211.5t-296 78.5zM516 166q-83 0 -141.5 58.5t-58.5 141.5q0 82 59 141t141 59t141 -59t59 -141q0 -83 -58.5 -141.5t-141.5 -58.5zM516 233q56 0 95 39t39 94
q0 56 -39 95t-95 39t-95 -39t-39 -95q1 -56 40 -94.5t94 -38.5z" />
    <glyph glyph-name="shoujihao" unicode="&#xe647;" 
d="M733 138q0 -29 -23 -49.5t-54 -20.5h-289q-32 0 -54.5 20.5t-22.5 49.5v488q0 29 22.5 50t54.5 21h289q31 0 54 -21t23 -50v-488zM511 891q-104 0 -198.5 -40.5t-163 -108.5t-109 -162t-40.5 -197.5t40.5 -198t109 -162.5t163 -108.5t198.5 -40.5t199 40.5t163.5 108.5
t109 162.5t40.5 198t-40.5 197.5t-109 162t-163.5 108.5t-199 40.5v0zM511 145q-11 0 -19 -7.5t-8 -17.5t8 -17.5t19 -7.5q12 0 20 7t8 17.5t-8 18t-20 7.5v0zM347 170h329v451h-329v-451v0zM470 646h83q7 0 7 6t-7 6h-83q-7 0 -7 -6t7 -6v0z" />
  </font>
</defs>
</svg>
